<?xml version="1.0" encoding="iso-8859-1"?>
<!-- Generator: Adobe Illustrator 19.0.0, SVG Export Plug-In . SVG Version: 6.00 Build 0)  -->
<svg version="1.1" id="Layer_1" xmlns="http://www.w3.org/2000/svg" xmlns:xlink="http://www.w3.org/1999/xlink" x="0px" y="0px"
	 viewBox="0 0 503.911 503.911" style="enable-background:new 0 0 503.911 503.911;" xml:space="preserve">
<g transform="translate(16.5 1)">
	<path style="fill:#80D6FA;" d="M311.402,71.755h-51.2h-51.2h-51.2c8.533-42.667,34.133-68.267,76.8-68.267
		S302.869,29.089,311.402,71.755z M313.962,174.155l10.24,93.867l0,0c-25.6,25.6-55.467,25.6-55.467,25.6h-68.267
		c0,0-34.987,0-60.587,25.6l10.24-93.867c25.6-25.6,58.027-25.6,58.027-25.6h51.2C260.202,199.755,287.509,199.755,313.962,174.155
		L313.962,174.155z M349.802,497.569L349.802,497.569l-229.547,0.853v-0.853l10.24-93.013c25.6-25.6,61.44-25.6,61.44-25.6h85.333
		c0,0,30.72,0,56.32-25.6L349.802,497.569z"/>
	<path style="fill:#ECF4F7;" d="M307.989,122.955l5.973,51.2h-0.853c-25.6,25.6-52.907,25.6-52.907,25.6h-51.2
		c0,0-32.427,0-58.027,25.6l11.093-101.547v-0.853h46.933h51.2H307.989z M209.002,498.422h51.2v-68.267h-51.2V498.422z
		 M324.202,268.022l9.387,85.333h-0.853c-25.6,25.6-56.32,25.6-56.32,25.6h-85.333c0,0-35.84,0-61.44,25.6l0,0l9.387-85.333
		c25.6-25.6,60.587-25.6,60.587-25.6h68.267C268.735,293.622,298.602,293.622,324.202,268.022L324.202,268.022z"/>
	<polygon style="fill:#AAB1BA;" points="312.255,71.755 312.255,122.955 171.455,122.955 158.655,122.955 158.655,71.755 	"/>
</g>
<path style="fill:#51565F;" d="M414.089,503.689H277.555c-2.56,0-4.267-1.707-4.267-4.267v-64h-42.667v64
	c0,2.56-1.707,4.267-4.267,4.267H89.822c-2.56,0-4.267-1.707-4.267-4.267c0-2.56,1.707-4.267,4.267-4.267h132.267v-64
	c0-2.56,1.707-4.267,4.267-4.267h51.2c2.56,0,4.267,1.707,4.267,4.267v64h132.267c2.56,0,4.267,1.707,4.267,4.267
	C418.355,501.982,416.649,503.689,414.089,503.689z M362.889,469.555c-2.56,0-4.267-1.707-4.267-3.413l-11.093-102.4
	c-24.747,20.48-51.2,21.333-52.907,21.333h-85.333c0,0-33.28,0-58.027,23.893l-6.827,58.027c0,2.56-2.56,4.267-5.12,3.413
	c-2.56,0-4.267-2.56-3.413-5.12l34.133-307.2c0-2.56,2.56-4.267,5.12-3.413c2.56,0,4.267,2.56,3.413,5.12l-6.827,58.027
	c24.747-19.627,52.053-19.627,53.76-19.627h51.2c0,0,24.747,0,48.64-23.04l-1.707-14.507c0-2.56,1.707-4.267,3.413-5.12
	c2.56,0,4.267,1.707,5.12,3.413l11.947,110.08c0,0.853,0,0.853,0,1.707l21.333,195.413
	C367.155,466.995,365.449,469.555,362.889,469.555L362.889,469.555z M161.502,322.782l-8.533,73.387
	c25.6-19.627,54.613-19.627,56.32-19.627h85.333c0,0,28.16,0,51.2-23.04l-8.533-75.093c-24.747,20.48-50.347,21.333-52.053,21.333
	h-68.267C217.822,298.889,185.395,298.889,161.502,322.782z M171.742,228.915l-9.387,81.067
	c24.747-19.627,53.76-19.627,55.467-19.627h68.267c0,0,27.307,0,50.347-23.04l-9.387-83.627
	c-24.747,20.48-48.64,21.333-49.493,21.333h-51.2C226.355,205.022,195.635,205.022,171.742,228.915z M499.422,128.222h-0.853
	L362.035,94.089c-2.56-0.853-3.413-2.56-3.413-5.12c0.853-2.56,2.56-3.413,5.12-3.413l136.533,34.133
	c2.56,0.853,3.413,2.56,3.413,5.12C502.835,126.515,501.129,128.222,499.422,128.222z M4.489,128.222
	c-1.707,0-3.413-1.707-4.267-3.413c-0.853-2.56,0.853-4.267,3.413-5.12l136.533-34.133c2.56-0.853,4.267,0.853,5.12,3.413
	c0.853,2.56-0.853,4.267-3.413,5.12L5.342,128.222H4.489z M345.822,128.222H158.089c-2.56,0-4.267-1.707-4.267-4.267
	c0-2.56,1.707-4.267,4.267-4.267h12.8V72.755c0-0.853,0-0.853,0-1.707c9.387-46.08,38.4-70.827,81.067-70.827
	s71.68,25.6,81.067,71.68v0.853v0.853v46.08h12.8c2.56,0,4.267,1.707,4.267,4.267C350.089,126.515,348.382,128.222,345.822,128.222z
	 M281.822,119.689h42.667V77.022h-42.667V119.689z M230.622,119.689h42.667V77.022h-42.667V119.689z M179.422,119.689h42.667V77.022
	h-42.667V119.689z M277.555,68.489h46.08c-9.387-39.253-34.133-59.733-71.68-59.733s-62.293,20.48-71.68,59.733H277.555z
	 M362.889,59.955c-1.707,0-3.413-1.707-4.267-3.413c-0.853-2.56,0.853-4.267,3.413-5.12l136.533-34.133
	c2.56-0.853,4.267,0.853,5.12,3.413s-0.853,4.267-3.413,5.12L363.742,59.955H362.889z M141.022,59.955h-0.853L3.635,25.822
	c-2.56-0.853-3.413-2.56-3.413-5.12c0.853-2.56,2.56-3.413,5.12-3.413l136.533,34.133c2.56,0.853,3.413,2.56,3.413,5.12
	C144.435,58.249,142.729,59.955,141.022,59.955z"/>
<g>
</g>
<g>
</g>
<g>
</g>
<g>
</g>
<g>
</g>
<g>
</g>
<g>
</g>
<g>
</g>
<g>
</g>
<g>
</g>
<g>
</g>
<g>
</g>
<g>
</g>
<g>
</g>
<g>
</g>
</svg>
