<?xml version="1.0" encoding="iso-8859-1"?>
<!-- Generator: Adobe Illustrator 19.0.0, SVG Export Plug-In . SVG Version: 6.00 Build 0)  -->
<svg version="1.1" id="Layer_1" xmlns="http://www.w3.org/2000/svg" xmlns:xlink="http://www.w3.org/1999/xlink" x="0px" y="0px"
	 viewBox="0 0 512 512" style="enable-background:new 0 0 512 512;" xml:space="preserve">
<path style="fill:#7CE8E8;" d="M256,480c123.52,0,224-100.48,224-224S379.52,32,256,32S32,132.48,32,256S132.48,480,256,480z
	 M347.36,138.608c24.608,0,44.56,19.952,44.56,44.56s-19.952,44.56-44.56,44.56s-44.56-19.952-44.56-44.56
	C302.8,158.544,322.752,138.608,347.36,138.608z M353.28,292.352l6.592,31.312L163.376,364.96l-6.592-31.312L353.28,292.352z
	 M164.816,138.608c24.608,0,44.56,19.952,44.56,44.56s-19.952,44.56-44.56,44.56s-44.56-19.952-44.56-44.56
	C120.256,158.544,140.208,138.608,164.816,138.608z"/>
<g>
	<path style="fill:#333333;" d="M256,512c141.392,0,256-114.608,256-256S397.392,0,256,0S0,114.608,0,256S114.608,512,256,512z
		 M256,32c123.52,0,224,100.48,224,224S379.52,480,256,480S32,379.52,32,256S132.48,32,256,32z"/>
	<circle style="fill:#333333;" cx="164.816" cy="183.152" r="44.56"/>
	<circle style="fill:#333333;" cx="347.36" cy="183.152" r="44.56"/>
	
		<rect x="157.937" y="312.659" transform="matrix(-0.9786 0.2057 -0.2057 -0.9786 578.7524 597.1485)" style="fill:#333333;" width="200.797" height="32"/>
</g>
<g>
</g>
<g>
</g>
<g>
</g>
<g>
</g>
<g>
</g>
<g>
</g>
<g>
</g>
<g>
</g>
<g>
</g>
<g>
</g>
<g>
</g>
<g>
</g>
<g>
</g>
<g>
</g>
<g>
</g>
</svg>
