<?xml version="1.0" encoding="iso-8859-1"?>
<!-- Generator: Adobe Illustrator 19.0.0, SVG Export Plug-In . SVG Version: 6.00 Build 0)  -->
<svg version="1.1" id="Layer_1" xmlns="http://www.w3.org/2000/svg" xmlns:xlink="http://www.w3.org/1999/xlink" x="0px" y="0px"
	 viewBox="0 0 503.689 503.689" style="enable-background:new 0 0 503.689 503.689;" xml:space="preserve">
<g transform="translate(1 5)">
	<path style="fill:#ECF4F7;" d="M378.955,255.378c65.707,0,119.467,53.76,119.467,119.467s-53.76,119.467-119.467,119.467H191.222
		c-54.613,0-99.84-35.84-114.347-85.333c0,0-5.12-19.627-5.12-34.133c0-65.707,53.76-119.467,119.467-119.467h17.067H378.955z"/>
	<path style="fill:#AAB1BA;" d="M225.355,357.778c9.387,0,17.067,7.68,17.067,17.067s-7.68,17.067-17.067,17.067
		s-17.067-7.68-17.067-17.067S215.969,357.778,225.355,357.778z M310.689,357.778c9.387,0,17.067,7.68,17.067,17.067
		s-7.68,17.067-17.067,17.067c-9.387,0-17.067-7.68-17.067-17.067S301.302,357.778,310.689,357.778z M396.022,357.778
		c9.387,0,17.067,7.68,17.067,17.067s-7.68,17.067-17.067,17.067s-17.067-7.68-17.067-17.067S386.635,357.778,396.022,357.778z"/>
	<path style="fill:#80D6FA;" d="M20.555,374.844c0,0,17.067,24.747,17.067,34.133s-7.68,17.067-17.067,17.067
		s-17.067-7.68-17.067-17.067S20.555,374.844,20.555,374.844z M20.555,323.644c9.387,0,17.067,7.68,17.067,17.067
		c0,9.387-17.067,34.133-17.067,34.133S3.489,350.098,3.489,340.711C3.489,331.324,11.169,323.644,20.555,323.644z"/>
	<path style="fill:#AAB1BA;" d="M378.955,221.244v34.133H208.289l51.2-139.947c4.267-8.533,11.947-13.653,21.333-13.653h4.267h25.6
		h42.667h8.533c9.387,0,17.067,7.68,17.067,17.067v34.133h-68.267c-9.387,0-17.067,7.68-17.067,17.067v34.133
		c0,9.387,7.68,17.067,17.067,17.067H378.955z"/>
	<path style="fill:#80D6FA;" d="M319.222,33.511c0,0,8.533,17.067,34.133,17.067s34.133-17.067,34.133-17.067
		s8.533,17.067,34.133,17.067s34.133-17.067,34.133-17.067s8.533,17.067,34.133,17.067c3.413,0,5.973,0,8.533-0.853v51.2
		c-2.56,0-5.12,0.853-8.533,0.853c-25.6,0-34.133-17.067-34.133-17.067s-8.533,17.067-34.133,17.067s-34.133-17.067-34.133-17.067
		s-8.533,17.067-34.133,17.067s-34.133-17.067-34.133-17.067s-2.56,4.267-8.533,9.387v-51.2
		C316.662,37.778,319.222,33.511,319.222,33.511z M310.689,42.898v51.2c-5.12,4.267-13.653,7.68-25.6,7.68
		c-25.6,0-34.133-17.067-34.133-17.067s-8.533,17.067-34.133,17.067s-34.133-17.067-34.133-17.067s-8.533,17.067-34.133,17.067
		s-34.133-17.067-34.133-17.067s-8.533,17.067-34.133,17.067S46.155,84.711,46.155,84.711s-8.533,17.067-34.133,17.067
		c-3.413,0-5.973,0-8.533-0.853v-51.2c2.56,0,5.12,0.853,8.533,0.853c25.6,0,34.133-17.067,34.133-17.067
		s8.533,17.067,34.133,17.067s34.133-17.067,34.133-17.067s8.533,17.067,34.133,17.067s34.133-17.067,34.133-17.067
		s8.533,17.067,34.133,17.067s34.133-17.067,34.133-17.067s8.533,17.067,34.133,17.067
		C297.035,50.578,305.569,47.164,310.689,42.898z"/>
	<path style="fill:#ECF4F7;" d="M378.955,152.978v68.267h-68.267c-9.387,0-17.067-7.68-17.067-17.067v-34.133
		c0-9.387,7.68-17.067,17.067-17.067H378.955z"/>
</g>
<path style="fill:#51565F;" d="M379.955,503.578H192.222c-54.613,0-103.253-36.693-118.613-88.747
	c-0.853-2.56,0.853-4.267,2.56-5.12c2.56-0.853,4.267,0.853,5.12,2.56c14.507,48.64,59.733,82.773,110.933,82.773h187.733
	c63.147,0,115.2-52.053,115.2-115.2s-52.053-115.2-115.2-115.2H243.422c-2.56,0-4.267-1.707-4.267-4.267
	c0-2.56,1.707-4.267,4.267-4.267h136.533c68.267,0,123.733,55.467,123.733,123.733S448.222,503.578,379.955,503.578z
	 M21.555,435.311c-11.947,0-21.333-9.387-21.333-21.333c0-8.533,11.093-26.453,16.213-34.133c-5.12-7.68-16.213-25.6-16.213-34.133
	c0-11.947,9.387-21.333,21.333-21.333s21.333,9.387,21.333,21.333c0,7.68-7.68,21.333-13.653,29.867h39.253
	c2.56-66.56,57.173-119.467,123.733-119.467h14.507l50.347-137.387c4.267-10.24,13.653-16.213,25.6-16.213h25.6V21.444
	c0-11.947,9.387-21.333,21.333-21.333h34.133c2.56,0,4.267,1.707,4.267,4.267s-1.707,4.267-4.267,4.267h-34.133
	c-6.827,0-12.8,5.973-12.8,12.8v81.067h46.933c11.947,0,21.333,9.387,21.333,21.333v102.4c0,2.56-1.707,4.267-4.267,4.267h-68.267
	c-11.947,0-21.333-9.387-21.333-21.333v-34.133c0-11.947,9.387-21.333,21.333-21.333h64v-29.867c0-6.827-5.973-12.8-12.8-12.8
	h-81.067c-8.533,0-14.507,3.413-17.067,11.093l-51.2,139.947c-0.853,1.707-2.56,2.56-4.267,2.56h-17.067
	c-63.147,0-115.2,52.053-115.2,115.2c0,2.56-1.707,4.267-4.267,4.267h-43.52c5.12,8.533,13.653,22.187,13.653,29.867
	C42.889,425.924,33.502,435.311,21.555,435.311z M21.555,387.524c-5.973,9.387-12.8,21.333-12.8,26.453
	c0,6.827,5.973,12.8,12.8,12.8s12.8-5.973,12.8-12.8C34.355,409.711,27.529,396.911,21.555,387.524z M21.555,332.911
	c-6.827,0-12.8,5.973-12.8,12.8c0,4.267,6.827,17.067,12.8,26.453c5.973-9.387,12.8-21.333,12.8-26.453
	C34.355,338.884,28.382,332.911,21.555,332.911z M311.689,162.244c-6.827,0-12.8,5.973-12.8,12.8v34.133
	c0,6.827,5.973,12.8,12.8,12.8h64v-59.733H311.689z M397.022,401.178c-11.947,0-21.333-9.387-21.333-21.333
	c0-11.947,9.387-21.333,21.333-21.333c11.947,0,21.333,9.387,21.333,21.333C418.355,391.791,408.969,401.178,397.022,401.178z
	 M397.022,367.044c-6.827,0-12.8,5.973-12.8,12.8c0,6.827,5.973,12.8,12.8,12.8s12.8-5.973,12.8-12.8
	C409.822,373.018,403.849,367.044,397.022,367.044z M311.689,401.178c-11.947,0-21.333-9.387-21.333-21.333
	c0-11.947,9.387-21.333,21.333-21.333c11.947,0,21.333,9.387,21.333,21.333C333.022,391.791,323.635,401.178,311.689,401.178z
	 M311.689,367.044c-6.827,0-12.8,5.973-12.8,12.8c0,6.827,5.973,12.8,12.8,12.8c6.827,0,12.8-5.973,12.8-12.8
	C324.489,373.018,318.515,367.044,311.689,367.044z M226.355,401.178c-11.947,0-21.333-9.387-21.333-21.333
	c0-11.947,9.387-21.333,21.333-21.333c11.947,0,21.333,9.387,21.333,21.333C247.689,391.791,238.302,401.178,226.355,401.178z
	 M226.355,367.044c-6.827,0-12.8,5.973-12.8,12.8c0,6.827,5.973,12.8,12.8,12.8c6.827,0,12.8-5.973,12.8-12.8
	C239.155,373.018,233.182,367.044,226.355,367.044z M490.889,59.844c-18.773,0-29.013-8.533-34.133-13.653
	c-5.12,5.973-15.36,13.653-34.133,13.653s-29.013-8.533-34.133-13.653c-5.12,5.973-15.36,13.653-34.133,13.653
	c-3.413,0-5.973,0-9.387-0.853c-2.56,0-4.267-2.56-3.413-5.12c0-2.56,2.56-4.267,5.12-3.413c2.56,0,5.12,0.853,7.68,0.853
	c22.187,0,29.867-14.507,30.72-14.507c0.853-1.707,2.56-2.56,3.413-2.56c1.707,0,3.413,0.853,3.413,2.56
	c0,0.853,7.68,14.507,30.72,14.507s29.867-14.507,30.72-14.507c0.853-1.707,2.56-2.56,3.413-2.56c1.707,0,3.413,0.853,3.413,2.56
	c0,0.853,7.68,14.507,30.72,14.507c2.56,0,5.12,0,7.68-0.853c2.56,0,4.267,0.853,5.12,3.413c0,2.56-0.853,4.267-3.413,5.12
	C496.862,59.844,494.302,59.844,490.889,59.844z M217.822,59.844c-18.773,0-29.013-8.533-34.133-13.653
	c-5.12,5.973-15.36,13.653-34.133,13.653c-18.773,0-29.013-8.533-34.133-13.653c-5.12,5.973-15.36,13.653-34.133,13.653
	s-29.013-8.533-34.133-13.653c-5.12,5.973-15.36,13.653-34.133,13.653c-3.413,0-5.973,0-9.387-0.853c-2.56,0-4.267-2.56-3.413-5.12
	c0-2.56,2.56-4.267,5.12-3.413c2.56,0.853,5.12,0.853,7.68,0.853c22.187,0,29.867-14.507,30.72-14.507
	c0.853-1.707,1.707-2.56,3.413-2.56c1.707,0,3.413,0.853,3.413,2.56c0,0.853,7.68,14.507,30.72,14.507s29.867-14.507,30.72-14.507
	c0.853-1.707,2.56-2.56,3.413-2.56c1.707,0,3.413,0.853,3.413,2.56c0,0.853,7.68,14.507,30.72,14.507s29.867-14.507,30.72-14.507
	c0.853-1.707,2.56-2.56,3.413-2.56l0,0c1.707,0,3.413,0.853,3.413,2.56c0,0.853,7.68,14.507,30.72,14.507
	s29.867-14.507,30.72-14.507c0.853-1.707,1.707-2.56,3.413-2.56s3.413,0.853,3.413,2.56c0,0.853,5.973,11.093,22.187,13.653
	c2.56,0,4.267,2.56,3.413,5.12c0,2.56-2.56,4.267-5.12,3.413c-12.8-2.56-20.48-8.533-24.747-13.653
	C246.835,51.311,236.595,59.844,217.822,59.844z"/>
<g>
</g>
<g>
</g>
<g>
</g>
<g>
</g>
<g>
</g>
<g>
</g>
<g>
</g>
<g>
</g>
<g>
</g>
<g>
</g>
<g>
</g>
<g>
</g>
<g>
</g>
<g>
</g>
<g>
</g>
</svg>
