<?xml version="1.0" encoding="iso-8859-1"?>
<!-- Generator: Adobe Illustrator 19.0.0, SVG Export Plug-In . SVG Version: 6.00 Build 0)  -->
<svg version="1.1" id="Layer_1" xmlns="http://www.w3.org/2000/svg" xmlns:xlink="http://www.w3.org/1999/xlink" x="0px" y="0px"
	 viewBox="0 0 512 512" style="enable-background:new 0 0 512 512;" xml:space="preserve">
<pattern  x="-50" y="652" width="38.478" height="38.478" patternUnits="userSpaceOnUse" id="Unnamed_Pattern_31" viewBox="0 -38.478 38.478 38.478" style="overflow:visible;">
	<g>
		<polygon style="fill:none;" points="0,0 38.478,0 38.478,-38.478 0,-38.478 		"/>
		<polygon style="fill:none;" points="0,-38.478 38.478,-38.478 38.478,0 0,0 		"/>
		<polygon style="fill:#B0B0B1;" points="38.478,-38.478 0,-38.478 0,0 38.478,0 		"/>
	</g>
</pattern>
<path style="fill:#898890;" d="M252.751,498.04c-25.91,0-46.99-21.08-46.99-46.991c0-25.91,21.08-46.99,46.99-46.99
	s46.99,21.08,46.99,46.99C299.742,476.959,278.661,498.04,252.751,498.04z M252.751,437.726c-7.346,0-13.323,5.977-13.323,13.323
	c0,7.346,5.977,13.323,13.323,13.323c7.346,0,13.323-5.977,13.323-13.323C266.074,443.703,260.097,437.726,252.751,437.726z"/>
<path style="fill:#787680;" d="M252.751,404.059v33.667c7.346,0,13.323,5.977,13.323,13.323c0,7.346-5.977,13.323-13.323,13.323
	v33.667c25.91,0,46.99-21.08,46.99-46.991C299.742,425.139,278.661,404.059,252.751,404.059z"/>
<path style="fill:#D8D7DA;" d="M214.616,226.888h-11.658v-39.597c0-4.465-1.774-8.746-4.931-11.904
	c-3.157-3.157-7.438-4.93-11.902-4.93h-39.596V130.86c0-9.297-7.537-16.834-16.834-16.834H90.098V74.431
	c0-9.297-7.537-16.834-16.834-16.834H33.667V36.722c0-9.297-7.537-16.834-16.834-16.834S0,27.426,0,36.722v37.708
	c0,9.297,7.537,16.834,16.834,16.834h39.597v39.597c0,9.297,7.537,16.834,16.834,16.834h39.597v39.597
	c0,4.465,1.774,8.746,4.931,11.902c3.157,3.157,7.438,4.931,11.902,4.931h39.596v39.597c0,9.297,7.537,16.834,16.834,16.834h28.491
	V226.888z"/>
<g>
	<path style="fill:#ACABB1;" d="M232.267,364.971l-33.251,33.251L20.091,219.298c-4.464-4.464-7.489-10.162-8.685-16.361
		l-4.19-21.714c-0.432-2.24,0.275-4.55,1.889-6.162s3.922-2.321,6.162-1.889l21.714,4.19c6.198,1.196,11.897,4.221,16.361,8.685
		L232.267,364.971z"/>
	<path style="fill:#ACABB1;" d="M510.268,116.026c-1.393-1.144-3.313-1.399-4.956-0.661l-171.05,76.96v51.565l121.285-54.569
		c28.453-12.803,49.291-38.164,56.33-68.561C512.285,119.005,511.661,117.171,510.268,116.026z"/>
</g>
<path style="fill:#D8D7DA;" d="M442.053,60.863c-1.191-1.344-3.041-1.899-4.775-1.429c-30.136,8.158-54.724,29.935-66.462,58.863
	l-36.554,90.086v125.078L442.895,65.776C443.57,64.112,443.245,62.208,442.053,60.863z"/>
<path style="fill:#FF3501;" d="M252.751,13.961c-49.751,0-90.226,40.475-90.226,90.226v257.304
	c0,49.751,40.476,90.227,90.227,90.227c49.752,0,90.227-40.476,90.227-90.227V104.188C342.978,54.437,302.502,13.961,252.751,13.961
	z"/>
<g>
	<path style="fill:#AA2300;" d="M252.751,13.961v437.758c49.752,0,90.227-40.476,90.227-90.227V104.188
		C342.978,54.437,302.502,13.961,252.751,13.961z"/>
	<path style="fill:#AA2300;" d="M194.996,106.008c0,31.887,25.85,57.737,57.737,57.737V48.27
		C220.847,48.27,194.996,74.121,194.996,106.008z"/>
</g>
<pattern  id="SVGID_1_" xlink:href="#Unnamed_Pattern_31" patternTransform="matrix(1.1223 0 0 -1.1223 556.0934 -19436.2949)">
</pattern>
<path style="fill:url(#SVGID_1_);" d="M310.471,106.008c0-31.887-25.85-57.737-57.737-57.737v115.475
	C284.622,163.745,310.471,137.896,310.471,106.008z"/>
<path style="fill:#911E00;" d="M310.471,106.008c0-31.887-25.85-57.737-57.737-57.737v115.475
	C284.622,163.745,310.471,137.896,310.471,106.008z"/>
<path style="fill:#C6C5CA;" d="M211.31,378.376v-6.947c0-5.439,4.409-9.85,9.85-9.85h63.244c5.406,0,9.789,4.382,9.789,9.789v7.068
	c0,5.406-4.382,9.789-9.789,9.789H221.16C215.719,388.225,211.31,383.816,211.31,378.376z"/>
<path style="fill:#E0E0E2;" d="M211.31,378.437v-7.068c0-5.406,4.382-9.789,9.789-9.789h31.635v26.646h-31.635
	C215.692,388.225,211.31,383.843,211.31,378.437z"/>
<path style="fill:#C6C5CA;" d="M256.285,416.343h-7.007c-5.439,0-9.85-4.409-9.85-9.85v-63.183c0-5.439,4.409-9.85,9.85-9.85h7.007
	c5.406,0,9.789,4.382,9.789,9.789v63.305C266.074,411.96,261.692,416.343,256.285,416.343z"/>
<path style="fill:#E0E0E2;" d="M252.751,416.343h-3.534c-5.406,0-9.789-4.382-9.789-9.789v-63.304c0-5.406,4.382-9.789,9.789-9.789
	h3.534L252.751,416.343L252.751,416.343z"/>
<g>
</g>
<g>
</g>
<g>
</g>
<g>
</g>
<g>
</g>
<g>
</g>
<g>
</g>
<g>
</g>
<g>
</g>
<g>
</g>
<g>
</g>
<g>
</g>
<g>
</g>
<g>
</g>
<g>
</g>
</svg>
